<?xml version="1.0" encoding="UTF-8"?>
<svg width="176px" height="26px" viewBox="0 0 176 26" version="1.1" xmlns="http://www.w3.org/2000/svg" xmlns:xlink="http://www.w3.org/1999/xlink">
    <title>dhl</title>
    <g id="Page-1" stroke="none" stroke-width="1" fill="none" fill-rule="evenodd">
        <g id="dhl" fill="#D50029" fill-rule="nonzero">
            <path d="M56.665,10.206 C55.897,11.246 54.612,13.054 53.83,14.11 C53.433,14.647 52.716,15.622 55.093,15.622 C57.608,15.622 67.608,15.622 67.608,15.622 C67.608,15.622 69.625,12.878 71.316,10.583 C73.616,7.461 71.515,0.965 63.292,0.965 C55.932,0.965 30.908,0.965 30.908,0.965 L25.293,8.594 C25.293,8.594 54.402,8.594 55.896,8.594 C57.441,8.594 57.42,9.182 56.665,10.206 Z M47.471,17.504 C45.094,17.504 45.811,16.527 46.208,15.99 C46.99,14.934 48.296,13.145 49.064,12.105 C49.82,11.081 49.84,10.493 48.293,10.493 C46.8,10.493 34.297,10.493 34.297,10.493 L23.02,25.819 C23.02,25.819 43.161,25.819 50.521,25.819 C59.604,25.819 64.661,19.641 66.22,17.505 C66.22,17.504 49.985,17.504 47.471,17.504 Z M65.361,25.819 L81.494,25.819 L87.61,17.503 L71.479,17.505 C71.474,17.504 65.361,25.819 65.361,25.819 Z M106.986,0.965 L100.798,9.37 L93.598,9.37 L99.783,0.965 L83.655,0.965 L72.865,15.622 L112.325,15.622 L123.112,0.965 L106.986,0.965 Z M88.694,25.819 L104.821,25.819 L110.94,17.505 L94.813,17.505 C94.807,17.504 88.694,25.819 88.694,25.819 Z M0,20.784 L0,22.55 L22.468,22.55 L23.766,20.784 L0,20.784 Z M26.181,17.504 L0,17.504 L0,19.268 L24.88,19.268 L26.181,17.504 Z M0,25.819 L20.061,25.819 L21.353,24.063 L0,24.063 L0,25.819 Z M152.072,22.549 L175.748,22.549 L175.748,20.783 L153.372,20.783 L152.072,22.549 Z M149.667,25.819 L175.748,25.819 L175.748,24.063 L150.958,24.063 L149.667,25.819 Z M155.783,17.504 L154.486,19.27 L175.748,19.27 L175.748,17.504 L155.783,17.504 L155.783,17.504 Z M134.659,15.622 L145.448,0.965 L128.367,0.965 C128.361,0.965 117.57,15.622 117.57,15.622 L134.659,15.622 Z M116.187,17.504 C116.187,17.504 115.008,19.115 114.435,19.891 C112.41,22.627 114.201,25.819 120.811,25.819 C128.447,25.819 146.712,25.819 146.712,25.819 L152.831,17.505 L116.187,17.505 L116.187,17.504 Z" id="Shape"></path>
        </g>
    </g>
</svg>