<?xml version="1.0" encoding="UTF-8"?>
<svg width="500px" height="91px" viewBox="0 0 500 91" version="1.1" xmlns="http://www.w3.org/2000/svg" xmlns:xlink="http://www.w3.org/1999/xlink">
    <title>netapp-vertical</title>
    <g id="Page-1" stroke="none" stroke-width="1" fill="none" fill-rule="evenodd">
        <g id="netapp-vertical" fill-rule="nonzero">
            <polygon id="Path" fill="#0067C5" points="0 0 0 73.4017857 34.2569444 73.4017857 34.2569444 29.358631 53.8313492 29.358631 53.8313492 73.4017857 88.0813492 73.4017857 88.0813492 0"></polygon>
            <path d="M127.231151,0.0104166667 L142.02877,0.0104166667 L176.164187,45.3878968 L176.164187,0.0104166667 L191.986607,0.0104166667 L191.986607,73.3918651 L178.357143,73.3918651 L143.06002,27.0610119 L143.06002,73.3958333 L127.230159,73.3958333 L127.231151,0.0104166667 Z M199.684524,45.8075397 C199.684524,62.8859127 212.071925,74.6463294 228.844246,74.6463294 C238.931052,74.6463294 246.426587,70.6884921 251.616071,64.2276786 L242.573413,56.2118056 C238.203373,60.2787698 234.353671,61.9469246 229.049107,61.9469246 C221.955853,61.9469246 216.974702,58.1974206 215.409722,51.015873 L254.232143,51.015873 C254.353175,49.5644841 254.445437,48.0902778 254.445437,46.8606151 C254.445437,31.03125 245.910218,16.5639881 227.291171,16.5639881 C211.046627,16.5639881 199.691468,29.6780754 199.691468,45.5897817 L199.691468,45.8075397 M215.190972,41.1175595 C216.434524,33.9484127 220.707341,29.2465278 227.28373,29.2465278 C233.931052,29.2465278 238.103175,34.0277778 239.034722,41.1175595 L215.190972,41.1175595 Z M264.320437,57.5605159 C264.320437,70.4707341 270.875992,74.3229167 280.537698,74.3229167 C285.84871,74.3229167 289.720238,73.0739087 293.050099,71.09375 L293.050099,58.3849206 C290.75248,59.6542659 288.154266,60.3893849 285.229663,60.3893849 C281.704861,60.3893849 280.136409,58.6056548 280.136409,54.9613095 L280.136409,31.1225198 L293.259425,31.1225198 L293.259425,17.5957341 L280.136409,17.5957341 L280.136409,3.33630952 L264.318948,3.33630952 L264.318948,17.5962302 L257.65873,17.5962302 L257.65873,31.1230159 L264.318948,31.1230159 L264.320437,57.5605159 M376.363095,90.047619 L392.169643,90.047619 L392.169643,66.109127 C395.918651,70.577381 401.125,74.4340278 409.553571,74.4340278 C422.786706,74.4340278 434.964782,64.233631 434.964782,45.5877976 L434.964782,45.3893849 C434.964782,26.7554563 422.582837,16.5615079 409.553571,16.5615079 C401.338294,16.5615079 396.02629,20.3998016 392.169643,25.6066468 L392.169643,17.5977183 L376.363095,17.5977183 L376.363095,90.047619 Z M419.118056,45.5887897 C419.118056,54.9583333 412.87996,61.0084325 405.49256,61.0084325 C398.103671,61.0084325 391.965278,54.8566468 391.965278,45.5887897 L391.965278,45.3893849 C391.965278,36.1240079 398.110119,29.9875992 405.49256,29.9875992 C412.87996,29.9875992 419.118056,36.1240079 419.118056,45.3893849 L419.118056,45.5887897 M441.395833,90.047619 L457.216766,90.047619 L457.216766,66.109127 C460.958333,70.577381 466.167659,74.4340278 474.610615,74.4340278 C487.818452,74.4340278 500.000496,64.233631 500.000496,45.5877976 L500.000496,45.3893849 C500.000496,26.7554563 487.619048,16.5615079 474.610615,16.5615079 C466.384425,16.5615079 461.070437,20.3998016 457.216766,25.6066468 L457.216766,17.5977183 L441.395833,17.5977183 L441.395833,90.047619 Z M484.186012,45.5887897 C484.186012,54.9583333 477.926587,61.0084325 470.535218,61.0084325 C463.166667,61.0084325 457.007937,54.8566468 457.007937,45.5887897 L457.007937,45.3893849 C457.007937,36.1240079 463.164683,29.9875992 470.535218,29.9875992 C477.925595,29.9875992 484.186012,36.1240079 484.186012,45.3893849 L484.186012,45.5887897 M297.100198,73.3943452 L313.438492,73.3943452 L320.104167,57.0376984 L348.99256,57.0376984 L355.700893,73.3943452 L372.400298,73.3943452 L341.952381,0.00297619048 L327.542163,0.00297619048 L297.100198,73.3943452 Z M324.860615,42.9087302 L334.550099,19.2475198 L344.229167,42.9087302 L324.860615,42.9087302 Z" id="Shape" fill="#010101"></path>
        </g>
    </g>
</svg>