<?xml version="1.0" encoding="UTF-8"?>
<svg width="330px" height="163px" viewBox="0 0 330 163" version="1.1" xmlns="http://www.w3.org/2000/svg" xmlns:xlink="http://www.w3.org/1999/xlink">
    <title>Combined Shape</title>
    <g id="Page-1" stroke="none" stroke-width="1" fill="none" fill-rule="evenodd">
        <g id="nike-logo" transform="translate(-102.000000, -5.000000)" fill="#1A1919">
            <path d="M288.018,5.299 L279.333,29.329 L299.885,5.299 L360.104,5.299 L354.891,19.196 L334.336,19.196 L327.969,36.855 L347.075,36.855 L340.997,52.489 L322.178,52.489 L314.652,73.043 L337.235,73.043 L335.666875,77.6930149 C390.404714,63.084015 431.992601,51.9947494 432,52.0051424 C432.01852,52.0203456 279.156356,117.647794 199.803263,151.694672 C187.236344,157.085076 183.875737,158.446613 177.967735,160.527772 C162.865207,165.848916 149.336912,168.387862 138.401469,167.952035 C128.568831,167.560129 120.524252,164.860703 114.234057,159.847003 C113.0336,158.889197 110.173043,156.017468 109.213351,154.806274 C106.662589,151.588249 104.928408,148.456375 103.771726,144.981584 C100.212446,134.285239 102.04428,120.249242 109.01131,104.844951 C114.976556,91.6569593 124.181185,78.5770795 140.240038,60.4615389 C142.605596,57.7958989 149.650075,50 149.695534,50 C149.71237,50 149.328493,50.6672546 148.84528,51.4797849 C144.669776,58.4969386 141.097026,66.7624496 139.150703,73.9181219 C136.024126,85.3999692 136.401268,95.2533772 140.255191,102.893865 C142.913707,108.157575 147.471404,112.716867 152.596499,115.237231 C161.568781,119.647868 174.704781,120.012747 190.746797,116.304838 C191.743239,116.07319 236.386042,104.186386 293.418679,88.9688434 L271.805,88.968 L270.356,54.515 L257.329,88.968 L237.354,88.968 L268.91,5.299 L288.018,5.299 Z M211.299,5.299 L208.981,42.26 L223.265,5.299 L242.372,5.299 L211.104,88.968 L190.646,88.968 L192.191,52.489 L178.295,88.968 L158.996,88.968 L190.646,5.299 L211.299,5.299 Z M264.954,5.299 L233.686,88.968 L214.386,88.968 L245.46,5.299 L264.954,5.299 Z M319.186,7.519 L289.463,39.171 L291.2,83.177 L319.186,7.519 Z M368.325,5.271 C369.065,5.271 369.754,5.455 370.393,5.822 C371.03,6.192 371.534,6.696 371.903,7.335 C372.272,7.976 372.456,8.664 372.456,9.402 C372.456,10.141 372.272,10.83 371.903,11.468 C371.534,12.107 371.03,12.61 370.393,12.98 C369.754,13.348 369.065,13.531 368.325,13.531 C367.59,13.531 366.903,13.348 366.264,12.98 C365.625,12.61 365.122,12.107 364.752,11.468 C364.381,10.83 364.196,10.141 364.196,9.402 C364.196,8.664 364.381,7.976 364.752,7.335 C365.122,6.696 365.625,6.192 366.264,5.822 C366.903,5.455 367.59,5.271 368.325,5.271 Z M368.323,6.066 C367.405,6.066 366.62,6.393 365.969,7.044 C365.319,7.694 364.995,8.48 364.995,9.402 C364.995,10.32 365.319,11.108 365.969,11.758 C366.62,12.408 367.405,12.736 368.323,12.736 C369.243,12.736 370.028,12.408 370.678,11.758 C371.327,11.108 371.653,10.32 371.653,9.402 C371.653,8.48 371.327,7.694 370.678,7.044 C370.028,6.393 369.243,6.066 368.323,6.066 Z M368.424,7.189 C368.983,7.189 369.387,7.303 369.639,7.527 C369.889,7.756 370.016,8.059 370.016,8.438 C370.016,8.735 369.918,8.992 369.727,9.209 C369.538,9.426 369.237,9.584 368.827,9.681 C368.997,9.747 369.118,9.815 369.2,9.887 C369.311,9.987 369.43,10.138 369.551,10.336 C369.559,10.35 369.799,10.776 370.268,11.613 L368.965,11.613 C368.542,10.772 368.258,10.27 368.114,10.105 C367.969,9.943 367.825,9.861 367.68,9.861 C367.647,9.861 367.604,9.866 367.545,9.875 L367.545,11.613 L366.45,11.613 L366.45,7.189 L368.424,7.189 Z M368.069,7.959 L367.545,7.959 L368.022,9.071 C368.342,9.071 368.567,9.02 368.698,8.916 C368.829,8.812 368.893,8.678 368.893,8.515 C368.893,8.35 368.831,8.217 368.708,8.114 C368.581,8.01 368.37,7.959 368.069,7.959 Z" id="Combined-Shape"></path>
        </g>
    </g>
</svg>