<?xml version="1.0" encoding="UTF-8"?>
<svg width="542px" height="176px" viewBox="0 0 542 176" version="1.1" xmlns="http://www.w3.org/2000/svg" xmlns:xlink="http://www.w3.org/1999/xlink">
    <!-- Generator: Sketch 55.2 (78181) - https://sketchapp.com -->
    <title>visa</title>
    <desc>Created with Sketch.</desc>
    <defs>
        <linearGradient x1="-187.360568%" y1="51.8201108%" x2="91.5704479%" y2="49.8426946%" id="linearGradient-1">
            <stop stop-color="#262860" offset="0%"></stop>
            <stop stop-color="#3D429B" offset="100%"></stop>
        </linearGradient>
        <linearGradient x1="-79.6358775%" y1="51.1412814%" x2="141.505377%" y2="49.232982%" id="linearGradient-2">
            <stop stop-color="#262860" offset="0%"></stop>
            <stop stop-color="#3D429B" offset="100%"></stop>
        </linearGradient>
        <linearGradient x1="14.7506689%" y1="50.1084046%" x2="262.252493%" y2="48.7644622%" id="linearGradient-3">
            <stop stop-color="#262860" offset="0%"></stop>
            <stop stop-color="#3D429B" offset="100%"></stop>
        </linearGradient>
        <linearGradient x1="-5.29505039%" y1="50.7580613%" x2="136.962127%" y2="48.785154%" id="linearGradient-4">
            <stop stop-color="#262860" offset="0%"></stop>
            <stop stop-color="#3D429B" offset="100%"></stop>
        </linearGradient>
    </defs>
    <g id="Page-1" stroke="none" stroke-width="1" fill="none" fill-rule="evenodd">
        <g id="visa" fill-rule="nonzero">
            <path d="M541.93,172.3 L501.13,172.3 C499.64,165.13 498.04,158.11 496.77,151.04 C496.25,148.1 495.31,146.96 492.03,147.04 C475.67,147.25 459.31,147.2 442.95,147.04 C440.47,147.04 439.49,147.84 438.73,150.1 C436.48,156.84 434.02,163.52 431.49,170.16 C431.15,171.07 430.02,172.31 429.24,172.31 C414.49,172.44 399.75,172.41 384.58,172.41 C387.34,165.75 389.96,159.41 392.58,153.05 C411.62,107.683333 430.65,62.3333333 449.67,17 C453.79,7.13 460,3 470.59,3 L506.4,3 C507.59,8.54 508.78,14 509.92,19.45 C519.306667,64.2766667 528.666667,109.106667 538,153.94 C539.2,159.69 540.62,165.38 541.94,171.1 L541.93,172.3 Z M488.53,112.15 L475.6,50.15 L475.08,50.05 L452.57,112.13 L488.53,112.15 Z" id="Shape" fill="url(#linearGradient-1)"></path>
            <path d="M364.2,0 C369.58,1 375.01,1.82 380.34,3.05 C385.2,4.17 389.97,5.74 395.14,7.21 C392.526667,19.3966667 389.98,31.3033333 387.5,42.93 C380.68,40.93 374.16,38.62 367.5,37.14 C358.33,35.14 348.94,34.35 339.77,36.9 C335.937367,37.9926096 332.379397,39.8840595 329.33,42.45 C324.33,46.76 324.23,52.97 329.04,57.45 C332.472583,60.5008769 336.216508,63.1822913 340.21,65.45 C349.14,70.82 358.51,75.45 367.21,81.22 C377.43,87.97 384.88,97.22 386.45,109.81 C389.21,132.01 381,149.5 362.36,161.87 C350.63,169.65 337.36,173.12 323.53,174.41 C304.395218,176.218111 285.093503,174.028449 266.85,167.98 C265.61,167.58 264.41,167.07 263.2,166.57 C262.772843,166.354973 262.364711,166.104072 261.98,165.82 C264.58,153.62 267.19,141.4 269.87,128.82 C273.02,130.19 275.97,131.57 278.99,132.82 C293.4,138.62 308.29,141.28 323.71,138.39 C327.826566,137.567644 331.738878,135.936098 335.22,133.59 C342.6,128.64 343.31,119.34 336.59,113.52 C332.17,109.7 326.86,106.88 321.83,103.82 C313.9,99.11 305.54,95 298.1,89.66 C288.56,82.79 281.66,73.66 280.35,61.46 C278.35,43.22 285.15,28.46 299.15,16.92 C311.32,6.92 325.78,2.47 341.15,0.6 C342.007424,0.448641117 342.855479,0.248313286 343.69,0 L364.2,0 Z" id="Path" fill="url(#linearGradient-2)"></path>
            <path d="M205.55,3.15 C203.26,8.67 201.09,13.93 198.89,19.15 C177.903333,69.2566667 156.94,119.36 136,169.46 C135,171.85 133.79,172.46 131.37,172.46 C118.11,172.35 104.86,172.31 91.61,172.46 C88.8,172.46 87.88,171.52 87.24,169 C76,125.24 64.54,81.5 53.43,37.69 C51.43,29.69 47.32,24.16 39.67,20.79 C27.4027381,15.553149 14.6833799,11.4461352 1.67,8.52 L0,8.1 C0.06,3 0.06,3 4.9,3 L74.47,3 C85.47,3 93.41,9.39 95.47,20.28 C101.38,51.12 107.14,82 113,112.8 C113.25,114.15 113.54,115.49 113.93,117.39 C114.53,116.26 114.93,115.63 115.22,114.94 C129.606667,78.5 143.976667,42.0566667 158.33,5.61 C159.11,3.61 160.07,2.94 162.22,2.95956715 C175.68,3.07 189.13,2.95956715 202.58,3.02 C203.45,3 204.32,3.1 205.55,3.15 Z" id="Path" fill="url(#linearGradient-3)"></path>
            <path d="M188,172.4 C200.11,115.78 212.14,59.56 224.2,3.2 L268.14,3.2 C266.31,11.78 264.52,20.2 262.72,28.62 C252.773333,75.1733333 242.843333,121.73 232.93,168.29 C232.24,171.53 231.1,172.56 227.74,172.49 C215.74,172.26 203.65,172.4 191.6,172.4 L188,172.4 Z" id="Path" fill="url(#linearGradient-4)"></path>
        </g>
    </g>
</svg>